<svg xmlns="http://www.w3.org/2000/svg" xmlns:xlink="http://www.w3.org/1999/xlink"><symbol fill="none" id="arr" viewBox="0 0 20 10"><path fill="#2E4FD7" d="m16.17 6-2.58 2.59L15 10l5-5-5-5-1.41 1.41L16.17 4H0v2z"/></symbol><use xlink:href="#arr" width="20" height="10" y="0"/><view id="arr-view" viewBox="0 0 20 10"/><symbol fill="none" id="benefits-1" viewBox="0 0 72 72"><rect width="72" height="72" fill="#E7EBFC" rx="36"/><g clip-path="url(#clip0_227_110)"><path fill="#F46953" d="M42 34h6l-3-4zm0 4h6l-3 4z"/><path fill="#2E4FD7" d="M25 24h6v24h-6a1 1 0 0 1-1-1V25a1 1 0 0 1 1-1"/><path fill="#46BA71" d="M33 24h6a1 1 0 0 1 1 1v22a1 1 0 0 1-1 1h-6z"/></g><defs><clipPath id="clip0_227_110"><path fill="#fff" d="M24 24h24v24H24z"/></clipPath></defs></symbol><use xlink:href="#benefits-1" width="72" height="72" y="10"/><view id="benefits-1-view" viewBox="0 10 72 72"/><symbol fill="none" id="logo" viewBox="0 0 51 39"><path fill="#46BA71" fill-rule="evenodd" d="M51 5v33.75L28.5 21.875 6 5z" clip-rule="evenodd"/><path fill="#2E4FD7" fill-rule="evenodd" d="M0 33.75V0l22.5 16.875L45 33.75z" clip-rule="evenodd"/></symbol><use xlink:href="#logo" width="51" height="39" y="82"/><view id="logo-view" viewBox="0 82 51 39"/></svg>