<svg xmlns="http://www.w3.org/2000/svg" xmlns:xlink="http://www.w3.org/1999/xlink"><symbol id="arr" viewBox="0 0 20 10"><path d="m16.17 6-2.58 2.59L15 10l5-5-5-5-1.41 1.41L16.17 4H0v2z"/></symbol><use xlink:href="#arr" width="20" height="10" y="0"/><view id="arr-view" viewBox="0 0 20 10"/><symbol fill="none" id="benefits-1" viewBox="0 0 72 72"><rect width="72" height="72" fill="#E7EBFC" rx="36"/><g clip-path="url(#clip0_227_110)"><path fill="#F46953" d="M42 34h6l-3-4zm0 4h6l-3 4z"/><path fill="#2E4FD7" d="M25 24h6v24h-6a1 1 0 0 1-1-1V25a1 1 0 0 1 1-1"/><path fill="#46BA71" d="M33 24h6a1 1 0 0 1 1 1v22a1 1 0 0 1-1 1h-6z"/></g><defs><clipPath id="clip0_227_110"><path fill="#fff" d="M24 24h24v24H24z"/></clipPath></defs></symbol><use xlink:href="#benefits-1" width="72" height="72" y="10"/><view id="benefits-1-view" viewBox="0 10 72 72"/><symbol fill="none" id="benefits-2" viewBox="0 0 72 72"><rect width="72" height="72" fill="#E7EBFC" rx="36"/><path fill="#F46953" d="M45 48h-9a1 1 0 0 1-1-1v-2a1 1 0 0 1 1-1h9a1 1 0 0 1 1 1v2a1 1 0 0 1-1 1"/><path fill="#46BA71" d="M45 24H27a1 1 0 0 0-1 1v2a1 1 0 0 0 1 1h18a1 1 0 0 0 1-1v-2a1 1 0 0 0-1-1"/><path fill="#2E4FD7" d="M45 30H27a1 1 0 0 0-1 1v10a1 1 0 0 0 1 1h18a1 1 0 0 0 1-1V31a1 1 0 0 0-1-1"/></symbol><use xlink:href="#benefits-2" width="72" height="72" y="82"/><view id="benefits-2-view" viewBox="0 82 72 72"/><symbol fill="none" id="benefits-3" viewBox="0 0 72 72"><rect width="72" height="72" fill="#E7EBFC" rx="36"/><path fill="#F46953" d="M47.6 25.2c-.2-.2-.6-.2-.9-.2L41 26.7v20.1l6.3-1.8c.4-.1.7-.5.7-1V26c0-.3-.1-.6-.4-.8"/><path fill="#46BA71" d="m39 26.7-6-1.5v20.1l6 1.5z"/><path fill="#2E4FD7" d="M31 25.2 24.7 27c-.4.2-.7.6-.7 1v18c0 .3.1.6.4.8.2.1.4.2.6.2h.3l5.7-1.7z"/></symbol><use xlink:href="#benefits-3" width="72" height="72" y="154"/><view id="benefits-3-view" viewBox="0 154 72 72"/><symbol fill="none" id="benefits-4" viewBox="0 0 72 72"><rect width="72" height="72" fill="#E7EBFC" rx="36"/><path fill="#2E4FD7" d="M33 34h-7a1 1 0 0 1-1-1v-7a1 1 0 0 1 1-1h7a1 1 0 0 1 1 1v7a1 1 0 0 1-1 1M33 47h-7a1 1 0 0 1-1-1v-7a1 1 0 0 1 1-1h7a1 1 0 0 1 1 1v7a1 1 0 0 1-1 1"/><path fill="#46BA71" d="M37 26h10v2H37zM47 39H37v2h10z"/><path fill="#F46953" d="M47 44H37v2h10zM47 31H37v2h10z"/></symbol><use xlink:href="#benefits-4" width="72" height="72" y="226"/><view id="benefits-4-view" viewBox="0 226 72 72"/><symbol id="flash" viewBox="0 0 44 44"><path d="M0 0h44v44H0z" opacity=".01"/><path d="M20.368 42.167a1.833 1.833 0 0 1-1.815-2.035l1.412-12.999H9.167a1.833 1.833 0 0 1-1.522-2.86L22.11 2.64a1.833 1.833 0 0 1 2.145-.697 1.833 1.833 0 0 1 1.192 1.834l-1.412 13.09h10.798a1.833 1.833 0 0 1 1.522 2.86L21.89 41.36a1.834 1.834 0 0 1-1.522.807"/></symbol><use xlink:href="#flash" width="44" height="44" y="298"/><view id="flash-view" viewBox="0 298 44 44"/><symbol id="headline-1" viewBox="0 0 24 24"><path d="M0 0h24v24H0z" opacity=".01"/><path d="M9 3H5a2 2 0 0 0-2 2v4a2 2 0 0 0 2 2h4a2 2 0 0 0 2-2V5a2 2 0 0 0-2-2M19 3h-4a2 2 0 0 0-2 2v4a2 2 0 0 0 2 2h4a2 2 0 0 0 2-2V5a2 2 0 0 0-2-2M9 13H5a2 2 0 0 0-2 2v4a2 2 0 0 0 2 2h4a2 2 0 0 0 2-2v-4a2 2 0 0 0-2-2M19 13h-4a2 2 0 0 0-2 2v4a2 2 0 0 0 2 2h4a2 2 0 0 0 2-2v-4a2 2 0 0 0-2-2"/></symbol><use xlink:href="#headline-1" width="24" height="24" y="342"/><view id="headline-1-view" viewBox="0 342 24 24"/><symbol id="headline-2" viewBox="0 0 24 24"><path d="M24 0v24H0V0z" opacity=".01"/><path d="M17.56 21a1 1 0 0 1-.46-.11L12 18.22l-5.1 2.67a1 1 0 0 1-1.45-1.06l1-5.63-4.12-4a1 1 0 0 1-.25-1 1 1 0 0 1 .81-.68l5.7-.83 2.51-5.13a1 1 0 0 1 1.8 0l2.54 5.12 5.7.83a1 1 0 0 1 .81.68 1 1 0 0 1-.25 1l-4.12 4 1 5.63a1 1 0 0 1-.4 1 1 1 0 0 1-.62.18"/></symbol><use xlink:href="#headline-2" width="24" height="24" y="366"/><view id="headline-2-view" viewBox="0 366 24 24"/><symbol id="headline-3" viewBox="0 0 24 24"><path d="M24 24H0V0h24z" opacity=".01"/><path d="m3.24 7.29 8.52 4.63c.15.08.33.08.48 0l8.52-4.63a.44.44 0 0 0-.05-.81L12.19 3a.5.5 0 0 0-.38 0L3.29 6.48a.44.44 0 0 0-.05.81"/><path d="m20.71 10.66-1.83-.78-6.64 3.61a.51.51 0 0 1-.48 0L5.12 9.88l-1.83.78a.48.48 0 0 0 0 .85l8.52 4.9a.46.46 0 0 0 .48 0l8.52-4.9a.48.48 0 0 0-.1-.85"/><path d="m20.71 15.1-1.56-.68-6.91 3.76a.51.51 0 0 1-.48 0l-6.91-3.76-1.56.68a.49.49 0 0 0 0 .87l8.52 5c.15.08.33.08.48 0l8.52-5a.49.49 0 0 0-.1-.87"/></symbol><use xlink:href="#headline-3" width="24" height="24" y="390"/><view id="headline-3-view" viewBox="0 390 24 24"/><symbol id="heart" viewBox="0 0 44 44"><path d="M0 0h44v44H0z" opacity=".01"/><path d="M22 38.5a1.834 1.834 0 0 1-1.302-.532L6.453 23.705a9.643 9.643 0 0 1 0-13.567 9.607 9.607 0 0 1 13.567 0l1.98 1.98 1.98-1.98a9.607 9.607 0 0 1 13.567 0 9.643 9.643 0 0 1 0 13.567L23.302 37.968A1.834 1.834 0 0 1 22 38.5"/></symbol><use xlink:href="#heart" width="44" height="44" y="414"/><view id="heart-view" viewBox="0 414 44 44"/><symbol fill="none" id="logo" viewBox="0 0 51 39"><path fill="#46BA71" fill-rule="evenodd" d="M51 5v33.75L28.5 21.875 6 5z" clip-rule="evenodd"/><path fill="#2E4FD7" fill-rule="evenodd" d="M0 33.75V0l22.5 16.875L45 33.75z" clip-rule="evenodd"/></symbol><use xlink:href="#logo" width="51" height="39" y="458"/><view id="logo-view" viewBox="0 458 51 39"/><symbol fill="none" id="next" viewBox="0 0 33 33"><path fill="#191919" d="M.5 32.5V.5h32v32z" opacity=".01"/><path fill="#191919" d="M7.167 17.833H22.98l-4.84 5.814a1.335 1.335 0 0 0 2.053 1.706l6.667-8c.045-.063.085-.13.12-.2 0-.066 0-.106.093-.173.06-.153.092-.316.093-.48a1.335 1.335 0 0 0-.093-.48c0-.067 0-.107-.093-.173a1.576 1.576 0 0 0-.12-.2l-6.667-8a1.333 1.333 0 0 0-1.027-.48 1.333 1.333 0 0 0-1.026 2.186l4.84 5.814H7.167a1.333 1.333 0 1 0 0 2.666"/></symbol><use xlink:href="#next" width="33" height="33" y="497"/><view id="next-view" viewBox="0 497 33 33"/><symbol id="play" viewBox="0 0 26 26"><path d="M26 26H0V0h26z" opacity=".01"/><path d="M8.667 17.56V8.44A1.907 1.907 0 0 1 9.75 6.716a2.275 2.275 0 0 1 2.394.281l5.525 4.561a1.907 1.907 0 0 1 0 2.882L12.144 19a2.275 2.275 0 0 1-2.394.282 1.907 1.907 0 0 1-1.083-1.722"/></symbol><use xlink:href="#play" width="26" height="26" y="530"/><view id="play-view" viewBox="0 530 26 26"/><symbol fill="none" id="prev" viewBox="0 0 33 33"><path fill="#191919" d="M32.5.5v32H.5V.5z" opacity=".01"/><path fill="#191919" d="M25.834 15.167H10.02l4.84-5.814a1.335 1.335 0 0 0-2.053-1.706l-6.667 8c-.045.063-.085.13-.12.2 0 .066 0 .106-.093.173-.06.153-.092.316-.093.48 0 .165.032.327.093.48 0 .067 0 .107.093.173.035.07.075.137.12.2l6.667 8c.254.305.63.481 1.027.48a1.333 1.333 0 0 0 1.026-2.186l-4.84-5.814h15.814a1.333 1.333 0 1 0 0-2.666"/></symbol><use xlink:href="#prev" width="33" height="33" y="556"/><view id="prev-view" viewBox="0 556 33 33"/><symbol id="shield" viewBox="0 0 44 44"><path d="M0 0h44v44H0z" opacity=".01"/><path d="M22 40.058a3.666 3.666 0 0 1-1.833-.458l-.55-.312A27.812 27.812 0 0 1 5.5 15.088v-.256a3.667 3.667 0 0 1 1.833-3.209L20.167 4.4a3.667 3.667 0 0 1 3.666 0l12.834 7.223a3.667 3.667 0 0 1 1.833 3.209v.256a27.812 27.812 0 0 1-14.153 24.2l-.55.312a3.668 3.668 0 0 1-1.797.458"/></symbol><use xlink:href="#shield" width="44" height="44" y="589"/><view id="shield-view" viewBox="0 589 44 44"/></svg>